<?xml version="1.0" encoding="UTF-8" standalone="no"?>
<!DOCTYPE svg PUBLIC "-//W3C//DTD SVG 1.1//EN" "http://www.w3.org/Graphics/SVG/1.1/DTD/svg11.dtd">
<svg width="100%" height="100%" viewBox="0 0 2721 704" version="1.1" xmlns="http://www.w3.org/2000/svg" xmlns:xlink="http://www.w3.org/1999/xlink" xml:space="preserve" xmlns:serif="http://www.serif.com/" style="fill-rule:evenodd;clip-rule:evenodd;stroke-linejoin:round;stroke-miterlimit:2;">
    <g transform="matrix(1,0,0,1,-990.454,-2100.21)">
        <g transform="matrix(1.43837,0,0,1.43837,-434.187,-920.67)">
            <g>
                <g transform="matrix(1.05589,0,0,1.02513,-35.8665,-64.8591)">
                    <rect x="972" y="2112" width="1791" height="477" style="fill:white;"/>
                </g>
                <g transform="matrix(1.05589,0,0,1.02513,-35.8665,-64.8591)">
                    <path d="M2750.74,2124.63L2750.74,2576.37C2750.74,2576.37 984.265,2576.37 984.265,2576.37C984.265,2576.37 984.265,2198.99 984.265,2124.63L2750.74,2124.63Z" style="fill:rgb(15,15,15);"/>
                </g>
                <g transform="matrix(1.05589,0,0,1.02513,-35.8665,-64.8591)">
                    <path d="M2763,2112L972,2112L972,2589L2763,2589L2763,2112ZM2750.74,2124.63L2750.74,2576.37C2750.74,2576.37 984.265,2576.37 984.265,2576.37C984.265,2576.37 984.265,2198.99 984.265,2124.63L2750.74,2124.63Z" style="fill:white;"/>
                </g>
                <g transform="matrix(1,0,0,1,24.958,0)">
                    <path d="M1122.41,2550.46L1094.54,2550.46C1094.54,2531.23 1078.92,2515.61 1059.69,2515.61C1040.46,2515.61 1024.85,2531.23 1024.85,2550.46L1003.94,2550.46L1003.94,2521.71C1014.37,2501.54 1035.43,2487.74 1059.69,2487.74C1094.31,2487.74 1122.41,2515.84 1122.41,2550.46Z" style="fill:white;"/>
                    <path d="M1526.62,2550.46L1484.81,2550.46C1484.81,2538.92 1494.17,2529.55 1505.71,2529.55C1517.25,2529.55 1526.62,2538.92 1526.62,2550.46Z" style="fill:white;"/>
                    <path d="M1080.6,2550.46L1038.78,2550.46C1038.78,2538.92 1048.15,2529.55 1059.69,2529.55C1071.23,2529.55 1080.6,2538.92 1080.6,2550.46Z" style="fill:white;"/>
                    <path d="M1303.61,2550.46L1261.8,2550.46C1261.8,2538.92 1271.16,2529.55 1282.7,2529.55C1294.24,2529.55 1303.61,2538.92 1303.61,2550.46Z" style="fill:white;"/>
                    <path d="M1561.47,2521.72L1561.47,2550.46L1540.56,2550.46C1540.56,2531.23 1524.94,2515.61 1505.71,2515.61C1486.48,2515.61 1470.87,2531.23 1470.87,2550.46L1442.99,2550.46C1442.99,2515.84 1471.1,2487.74 1505.71,2487.74C1529.97,2487.74 1551.03,2501.54 1561.47,2521.72Z" style="fill:white;"/>
                    <path d="M1345.42,2550.46L1317.55,2550.46C1317.55,2531.23 1301.93,2515.61 1282.7,2515.61C1263.47,2515.61 1247.86,2531.23 1247.86,2550.46L1219.98,2550.46C1219.98,2515.84 1248.09,2487.74 1282.7,2487.74C1317.32,2487.74 1345.42,2515.84 1345.42,2550.46Z" style="fill:white;"/>
                    <path d="M1136.35,2550.46L1164.23,2550.46C1164.23,2525.55 1155.5,2502.67 1140.94,2484.71L1140.94,2484.71C1121.76,2461.05 1092.48,2445.92 1059.69,2445.92C1039.2,2445.92 1020.08,2451.83 1003.94,2462.04L1003.94,2497.87C1017.92,2483.05 1037.73,2473.8 1059.69,2473.8C1099.65,2473.8 1132.51,2504.44 1136.04,2543.49L1136.35,2543.49L1136.35,2550.46Z" style="fill:white;"/>
                    <path d="M1561.47,2462.04C1545.32,2451.83 1526.2,2445.92 1505.71,2445.92C1472.92,2445.92 1443.64,2461.05 1424.46,2484.71L1424.46,2484.71C1409.9,2502.67 1401.18,2525.55 1401.18,2550.46C1401.18,2550.46 1429.05,2550.46 1429.05,2550.46L1429.05,2543.49L1429.32,2544.03C1432.59,2504.72 1465.57,2473.8 1505.71,2473.8C1527.67,2473.8 1547.49,2483.05 1561.47,2497.87L1561.47,2462.04Z" style="fill:white;"/>
                    <path d="M1206.04,2550.46C1206.04,2526.34 1200.2,2503.58 1189.85,2483.52L1189.85,2483.52C1183.52,2471.25 1175.51,2460 1166.13,2450.05L1166.13,2450.05C1139.44,2421.77 1101.61,2404.11 1059.69,2404.11C1039.96,2404.11 1021.13,2408.02 1003.94,2415.12L1003.94,2445.91C1020.56,2437.03 1039.54,2431.98 1059.69,2431.98C1094.35,2431.98 1125.55,2446.89 1147.22,2470.65L1147.38,2470.52L1156.15,2481.35L1156,2481.48C1169.95,2500.91 1178.17,2524.73 1178.17,2550.46C1178.17,2550.46 1206.04,2550.46 1206.04,2550.46Z" style="fill:white;"/>
                    <path d="M1561.47,2415.12C1544.28,2408.02 1525.45,2404.11 1505.71,2404.11C1463.79,2404.11 1425.96,2421.77 1399.28,2450.05L1399.28,2450.05C1389.89,2460 1381.88,2471.25 1375.56,2483.52C1365.21,2503.58 1359.36,2526.34 1359.36,2550.46L1387.24,2550.46L1387.24,2543.49L1387.42,2543.85C1388.7,2520.66 1396.66,2499.24 1409.41,2481.48L1409.25,2481.35L1418.03,2470.52L1418.19,2470.65C1439.86,2446.89 1471.06,2431.98 1505.71,2431.98C1525.87,2431.98 1544.85,2437.03 1561.47,2445.91L1561.47,2415.12Z" style="fill:white;"/>
                    <path d="M1361.03,2481.27C1341.88,2459.6 1313.87,2445.92 1282.7,2445.92C1251.53,2445.92 1223.53,2459.6 1204.37,2481.27L1205.43,2483.32L1205.29,2483.39C1209.68,2492.9 1213.17,2502.91 1215.64,2513.31C1228.73,2489.75 1253.87,2473.8 1282.7,2473.8C1311.54,2473.8 1336.67,2489.75 1349.76,2513.31C1352.23,2502.91 1355.72,2492.9 1360.11,2483.39L1359.98,2483.32L1361.03,2481.27Z" style="fill:white;"/>
                    <path d="M1384.52,2445.38C1358.17,2419.84 1322.26,2404.11 1282.7,2404.11C1243.14,2404.11 1207.23,2419.84 1180.88,2445.38L1181.05,2445.56L1180.94,2445.66C1187.04,2452.71 1192.53,2460.3 1197.34,2468.34C1218.9,2445.93 1249.18,2431.98 1282.7,2431.98C1316.22,2431.98 1346.51,2445.93 1368.06,2468.34C1372.87,2460.3 1378.37,2452.71 1384.47,2445.66L1384.36,2445.56L1384.52,2445.38Z" style="fill:white;"/>
                    <path d="M1178.61,2428.61C1176.07,2430.78 1173.6,2433.03 1171.2,2435.36C1153.36,2418.07 1131.52,2404.89 1107.2,2397.34L1086.94,2321.72C1095.33,2319.05 1103.41,2315.68 1111.11,2311.68L1178.61,2428.61Z" style="fill:white;"/>
                    <path d="M1430.65,2408.82C1417.26,2415.94 1405,2424.89 1394.21,2435.36C1365.35,2407.39 1326.02,2390.17 1282.7,2390.17C1277.03,2390.17 1271.43,2390.47 1265.9,2391.04L1153.76,2278.9C1159.64,2272.47 1164.98,2265.53 1169.71,2258.16L1430.65,2408.82Z" style="fill:white;"/>
                    <path d="M1248.9,2393.75C1227.21,2398.41 1207.15,2407.46 1189.7,2419.93L1123.17,2304.7C1130.54,2299.97 1137.47,2294.64 1143.91,2288.76L1248.9,2393.75Z" style="fill:rgb(253,212,9);"/>
                    <path d="M1295.79,2251.15L1186.72,2221.93C1184.06,2230.32 1180.69,2238.4 1176.69,2246.1L1446.1,2401.64C1460.23,2395.97 1475.36,2392.25 1491.14,2390.82L1491.11,2261.79L1430.95,2261.79L1430.95,2296.04C1430.95,2304.54 1427.58,2312.7 1421.57,2318.71C1415.55,2324.72 1407.4,2328.1 1398.9,2328.1L1349.02,2328.1C1340.44,2328.1 1332.22,2324.66 1326.2,2318.56C1320.18,2312.46 1316.85,2304.2 1316.96,2295.62L1317.08,2286.4C1317.08,2286.4 1389.26,2286.4 1389.26,2286.4L1389.26,2261.79L1319.64,2261.79C1310.17,2261.79 1301.66,2257.68 1295.79,2251.15Z" style="fill:rgb(253,212,9);"/>
                    <path d="M1539.03,2138.94L1561.47,2138.94L1561.47,2400.15C1554.22,2397.46 1546.73,2395.27 1539.03,2393.64L1539.03,2138.94Z" style="fill:white;"/>
                    <path d="M1003.94,2324.46C1013.5,2326.81 1023.42,2328.26 1033.59,2328.71L1033.59,2392.29C1023.35,2393.97 1013.43,2396.62 1003.94,2400.15L1003.94,2324.46Z" style="fill:white;"/>
                    <path d="M1091.71,2393.37C1081.36,2391.27 1070.65,2390.17 1059.69,2390.17C1055.6,2390.17 1051.54,2390.32 1047.52,2390.63L1047.52,2328.71C1056.39,2328.32 1065.06,2327.16 1073.47,2325.32L1091.71,2393.37Z" style="fill:rgb(253,212,9);"/>
                    <path d="M1525.1,2391.33C1518.74,2390.57 1512.27,2390.17 1505.71,2390.17C1505.5,2390.17 1505.29,2390.17 1505.08,2390.17L1505.02,2138.94L1525.1,2138.94L1525.1,2391.33Z" style="fill:white;"/>
                    <path d="M1175.07,2138.94C1178.24,2150.61 1179.94,2162.88 1179.94,2175.55C1179.94,2252.47 1117.48,2314.93 1040.56,2314.93C1027.88,2314.93 1015.61,2313.24 1003.94,2310.06L1003.94,2280.89C1015.41,2284.88 1027.73,2287.05 1040.56,2287.05C1102.1,2287.05 1152.06,2237.09 1152.06,2175.55C1152.06,2162.73 1149.89,2150.41 1145.9,2138.94L1175.07,2138.94Z" style="fill:rgb(253,212,9);"/>
                    <path d="M1417.02,2261.79L1403.2,2261.79L1403.2,2300.34L1331.41,2300.34C1332.18,2303.5 1333.8,2306.42 1336.12,2308.77C1339.53,2312.22 1344.17,2314.16 1349.02,2314.16L1398.9,2314.16C1403.7,2314.16 1408.31,2312.25 1411.71,2308.85C1415.11,2305.45 1417.02,2300.85 1417.02,2296.04L1417.02,2261.79Z" style="fill:white;"/>
                    <path d="M1003.94,2138.94L1131.01,2138.94C1135.6,2150.24 1138.12,2162.6 1138.12,2175.55C1138.12,2229.4 1094.4,2273.12 1040.56,2273.12C1027.61,2273.12 1015.24,2270.59 1003.94,2266L1003.94,2138.94Z" style="fill:white;"/>
                    <path d="M1491.1,2234.03L1315.34,2234.03C1315.34,2234.03 1315.34,2200.02 1315.34,2200.02C1315.34,2195.21 1313.43,2190.6 1310.03,2187.21C1306.63,2183.81 1302.02,2181.9 1297.22,2181.9L1257.12,2181.9C1257.12,2181.9 1257.12,2138.99 1257.12,2138.99C1257.12,2138.99 1243.3,2138.99 1243.3,2138.99L1243.3,2177.6C1243.3,2182.41 1245.21,2187.01 1248.61,2190.41C1252.01,2193.81 1256.62,2195.72 1261.42,2195.72L1301.52,2195.72L1301.52,2229.73C1301.52,2239.74 1309.63,2247.85 1319.64,2247.85L1491.11,2247.85L1491.1,2234.03Z" style="fill:white;"/>
                    <path d="M1229.74,2182.52L1193.72,2182.52C1193.32,2191.38 1192.17,2200.05 1190.33,2208.46L1287.95,2234.62C1287.71,2233.03 1287.58,2231.39 1287.58,2229.73C1287.58,2229.73 1287.58,2209.66 1287.58,2209.66C1287.58,2209.66 1261.42,2209.66 1261.42,2209.66C1252.92,2209.66 1244.77,2206.28 1238.75,2200.27C1233.91,2195.43 1230.78,2189.2 1229.74,2182.52Z" style="fill:white;"/>
                    <path d="M1344.87,2138.94L1271.06,2138.94L1271.06,2167.96C1271.06,2167.96 1297.22,2167.96 1297.22,2167.96C1305.72,2167.96 1313.87,2171.34 1319.89,2177.35C1325.9,2183.36 1329.28,2191.52 1329.28,2200.02C1329.28,2200.02 1329.28,2220.09 1329.28,2220.09L1389.27,2220.09C1389.41,2211.79 1392.77,2203.86 1398.65,2197.98C1404.66,2191.97 1412.81,2188.59 1421.32,2188.59C1421.32,2188.59 1491.08,2188.59 1491.08,2188.59L1491.08,2173.67L1376.92,2173.67C1368.42,2173.67 1360.27,2170.29 1354.26,2164.28C1348.24,2158.26 1344.87,2150.11 1344.87,2141.61L1344.87,2138.94Z" style="fill:white;"/>
                    <path d="M1491.1,2202.53L1421.32,2202.53C1416.51,2202.53 1411.9,2204.44 1408.5,2207.83C1405.24,2211.1 1403.35,2215.49 1403.21,2220.09L1491.1,2220.09L1491.1,2202.53Z" style="fill:white;"/>
                    <path d="M1229.36,2168.58L1193.72,2168.58C1193.26,2158.41 1191.82,2148.5 1189.47,2138.94L1229.36,2138.94L1229.36,2168.58Z" style="fill:rgb(253,212,9);"/>
                    <path d="M1491.08,2138.94L1358.81,2138.94L1358.81,2141.61C1358.81,2146.41 1360.71,2151.02 1364.11,2154.42C1367.51,2157.82 1372.12,2159.73 1376.92,2159.73L1491.08,2159.73L1491.08,2138.94Z" style="fill:white;"/>
                    <g>
                        <g transform="matrix(0.779486,0,0,0.779486,363.043,459.528)">
                            <g transform="matrix(556.109,0,0,556.109,1629,2550.46)">
                                <path d="M0.14,-0.706L0.343,-0.122L0.547,-0.706L0.671,-0.706L0.416,-0L0.27,-0L0.016,-0.706L0.14,-0.706Z" style="fill:white;fill-rule:nonzero;"/>
                            </g>
                            <g transform="matrix(556.109,0,0,556.109,1977.16,2550.46)">
                                <path d="M0.49,-0.153L0.192,-0.153L0.138,-0L0.016,-0L0.276,-0.695L0.407,-0.695L0.666,-0L0.544,-0L0.49,-0.153ZM0.458,-0.241L0.341,-0.571L0.224,-0.241L0.458,-0.241Z" style="fill:white;fill-rule:nonzero;"/>
                            </g>
                            <g transform="matrix(556.109,0,0,556.109,2356.43,2550.46)">
                                <path d="M0.64,-0L0.526,-0L0.183,-0.521L0.183,-0L0.069,-0L0.069,-0.705L0.183,-0.705L0.526,-0.182L0.526,-0.705L0.64,-0.705L0.64,-0Z" style="fill:white;fill-rule:nonzero;"/>
                            </g>
                            <g transform="matrix(556.109,0,0,556.109,2750.71,2550.46)">
                                <path d="M0.392,-0.712C0.476,-0.712 0.546,-0.691 0.602,-0.65C0.658,-0.609 0.695,-0.552 0.713,-0.481L0.593,-0.481C0.578,-0.519 0.553,-0.549 0.518,-0.572C0.483,-0.595 0.441,-0.606 0.393,-0.606C0.349,-0.606 0.31,-0.596 0.275,-0.575C0.239,-0.554 0.212,-0.525 0.193,-0.487C0.173,-0.449 0.163,-0.404 0.163,-0.353C0.163,-0.299 0.173,-0.253 0.193,-0.214C0.213,-0.175 0.241,-0.146 0.278,-0.126C0.314,-0.105 0.356,-0.095 0.404,-0.095C0.463,-0.095 0.513,-0.113 0.555,-0.15C0.597,-0.186 0.622,-0.236 0.631,-0.299L0.372,-0.299L0.372,-0.383L0.727,-0.383L0.727,-0.274C0.719,-0.222 0.701,-0.175 0.672,-0.133C0.643,-0.09 0.604,-0.056 0.557,-0.031C0.509,-0.006 0.454,0.007 0.393,0.007C0.324,0.007 0.264,-0.008 0.211,-0.039C0.158,-0.07 0.118,-0.112 0.089,-0.167C0.06,-0.221 0.046,-0.283 0.046,-0.353C0.046,-0.423 0.06,-0.485 0.089,-0.54C0.118,-0.594 0.158,-0.636 0.211,-0.667C0.263,-0.697 0.323,-0.712 0.392,-0.712Z" style="fill:white;fill-rule:nonzero;"/>
                            </g>
                        </g>
                        <g transform="matrix(0.143637,0,0,0.143637,1644.71,2183.48)">
                            <text x="1629px" y="2550.46px" style="font-family:'Poppins-Light', 'Poppins';font-weight:300;font-size:556.109px;fill:rgb(253,212,9);">E<tspan x="2143.48px 2695.78px 3309.24px 3670.8px 4236.99px 4598.54px 5118.03px 5479.58px 6157px " y="2550.46px 2550.46px 2550.46px 2550.46px 2550.46px 2550.46px 2550.46px 2550.46px 2550.46px ">XHIBITION</tspan></text>
                        </g>
                    </g>
                </g>
            </g>
        </g>
    </g>
</svg>
